<?xml version="1.0" standalone="no"?><!DOCTYPE svg PUBLIC "-//W3C//DTD SVG 1.1//EN" "http://www.w3.org/Graphics/SVG/1.1/DTD/svg11.dtd"><svg t="1750060911502" class="icon" viewBox="0 0 1024 1024" version="1.1" xmlns="http://www.w3.org/2000/svg" p-id="23171" xmlns:xlink="http://www.w3.org/1999/xlink" width="200" height="200"><path d="M913.066667 985.6h-797.866667c-25.6 0-46.933333-8.533333-64-21.333333-29.866667-21.333333-51.2-55.466667-51.2-93.866667v-512c0-64 51.2-115.2 115.2-115.2L682.666667 42.666667c68.266667-21.333333 157.866667 0 170.666666 85.333333v115.2h55.466667c64 0 115.2 51.2 115.2 115.2v512c4.266667 64-46.933333 115.2-110.933333 115.2z m-140.8-832c-17.066667-42.666667-68.266667-25.6-93.866667-17.066667L384 243.2h388.266667V153.6z m170.666666 234.666667c0-29.866667-25.6-55.466667-55.466666-55.466667h-738.133334c-29.866667 0-55.466667 25.6-55.466666 55.466667v456.533333c0 29.866667 25.6 55.466667 55.466666 55.466667h738.133334c29.866667 0 55.466667-25.6 55.466666-55.466667V388.266667z m-145.066666 256c-29.866667 0-55.466667-25.6-55.466667-55.466667 0-29.866667 25.6-55.466667 55.466667-55.466667 29.866667 0 55.466667 25.6 55.466666 55.466667 4.266667 29.866667-21.333333 55.466667-55.466666 55.466667z" fill="#A09D9D" p-id="23172"></path></svg>