<?xml version="1.0" standalone="no"?><!DOCTYPE svg PUBLIC "-//W3C//DTD SVG 1.1//EN" "http://www.w3.org/Graphics/SVG/1.1/DTD/svg11.dtd"><svg t="1750055174532" class="icon" viewBox="0 0 1024 1024" version="1.1" xmlns="http://www.w3.org/2000/svg" p-id="8960" data-spm-anchor-id="a313x.search_index.0.i12.6cc23a816F7HmH" xmlns:xlink="http://www.w3.org/1999/xlink" width="200" height="200"><path d="M331.42624 521.417113A294.421992 294.421992 0 0 1 225.62593 295.046797c0-162.95261 132.094187-295.046797 295.046797-295.046797s295.046797 132.094187 295.046797 295.046797-132.094187 295.046797-295.046797 295.046797C302.320742 590.093594 123.192625 758.096711 105.55924 971.91886H104.136073a52.067082 52.067082 0 1 1-101.721722-15.706903c19.091263-198.774763 149.953196-364.903465 329.011889-434.794844zM520.672727 485.95943c105.435841 0 190.912633-85.476793 190.912633-190.912633S626.108568 104.134164 520.672727 104.134164s-190.912633 85.476793-190.912633 190.912633 85.476793 190.912633 190.912633 190.912633z" fill="#ffffff" p-id="8961" data-spm-anchor-id="a313x.search_index.0.i13.6cc23a816F7HmH" class=""></path><path d="M781.008136 781.006227v-86.77847a52.067082 52.067082 0 0 1 104.134164 0v86.77847h86.778469a52.067082 52.067082 0 0 1 0 104.134163h-86.778469v86.77847a52.067082 52.067082 0 0 1-104.134164 0v-86.77847h-86.77847a52.067082 52.067082 0 0 1 0-104.134163h86.77847z" fill="#DEF34B" p-id="8962" data-spm-anchor-id="a313x.search_index.0.i7.6cc23a816F7HmH" class="selected"></path></svg>