<?xml version="1.0" encoding="UTF-8"?>
<svg width="1034px" height="207px" viewBox="0 0 1034 207" version="1.1" xmlns="http://www.w3.org/2000/svg" xmlns:xlink="http://www.w3.org/1999/xlink">
    <title>编组 2</title>
    <g id="页面-1" stroke="none" stroke-width="1" fill="none" fill-rule="evenodd">
        <g id="画板" transform="translate(-216.000000, -204.000000)">
            <g id="编组-2" transform="translate(216.546437, 204.000000)">
                <path d="M425.69575,46.5234375 L380.625438,46.5234375 L380.625438,46.5234375 L380.625438,197 C380.625438,198.104569 379.730007,199 378.625438,199 L340.672313,199 C339.567743,199 338.672313,198.104569 338.672313,197 L338.672313,46.5234375 L338.672313,46.5234375 L293.602,46.5234375 C292.497431,46.5234375 291.602,45.628007 291.602,44.5234375 L291.602,11.140625 C291.602,10.0360555 292.497431,9.140625 293.602,9.140625 L425.69575,9.140625 C426.80032,9.140625 427.69575,10.0360555 427.69575,11.140625 L427.69575,44.5234375 C427.69575,45.628007 426.80032,46.5234375 425.69575,46.5234375 Z" id="路径" fill="#E0F64B" fill-rule="nonzero"></path>
                <path d="M585.162938,130.769196 C585.162938,140.626339 583.320081,149.754911 579.634366,158.154911 C575.948652,166.554911 570.805795,173.754911 564.205795,179.754911 C557.605795,185.754911 549.977224,190.319196 541.320081,193.447768 C532.662938,196.576339 523.491509,198.140625 513.805795,198.140625 C501.034366,198.140625 489.184366,195.354911 478.255795,189.783482 C467.327224,184.212054 458.712938,176.304911 452.412938,166.062054 C446.112938,155.819196 442.962938,144.054911 442.962938,130.769196 L442.962938,11.140625 C442.962938,10.0360555 443.858368,9.140625 444.962938,9.140625 L482.991509,9.140625 C484.096079,9.140625 484.991509,10.0360555 484.991509,11.140625 L484.991509,129.740625 L484.991509,129.740625 C484.991509,138.312054 487.198652,145.019196 491.612938,149.862054 C496.027224,154.704911 506.091509,157.126339 513.805795,157.126339 C518.777224,157.126339 523.793649,157.296531 527.650791,155.153674 C531.507934,153.010817 537.862938,148.640625 539.920081,144.526339 C541.977224,140.412054 543.005795,135.483482 543.005795,129.740625 L543.005795,11.140625 C543.005795,10.0360555 543.901226,9.140625 545.005795,9.140625 L583.162938,9.140625 C584.267507,9.140625 585.162938,10.0360555 585.162938,11.140625 L585.162938,130.769196 L585.162938,130.769196 Z" id="路径" fill="#E0F64B" fill-rule="nonzero"></path>
                <path d="M1033.16294,130.769196 C1033.16294,140.626339 1031.32008,149.754911 1027.63437,158.154911 C1023.94865,166.554911 1018.8058,173.754911 1012.2058,179.754911 C1005.6058,185.754911 997.977224,190.319196 989.320081,193.447768 C980.662938,196.576339 971.491509,198.140625 961.805795,198.140625 C949.034366,198.140625 937.184366,195.354911 926.255795,189.783482 C915.327224,184.212054 906.712938,176.304911 900.412938,166.062054 C894.112938,155.819196 890.962938,144.054911 890.962938,130.769196 L890.962938,11.140625 C890.962938,10.0360555 891.858368,9.140625 892.962938,9.140625 L930.991509,9.140625 C932.096079,9.140625 932.991509,10.0360555 932.991509,11.140625 L932.991509,129.740625 L932.991509,129.740625 C932.991509,138.312054 935.198652,145.019196 939.612938,149.862054 C944.027224,154.704911 954.091509,157.126339 961.805795,157.126339 C966.777224,157.126339 971.418811,157.126339 975.574467,155.066526 C979.730124,153.006712 985.862938,148.640625 987.920081,144.526339 C989.977224,140.412054 991.005795,135.483482 991.005795,129.740625 L991.005795,11.140625 C991.005795,10.0360555 991.901226,9.140625 993.005795,9.140625 L1031.16294,9.140625 C1032.26751,9.140625 1033.16294,10.0360555 1033.16294,11.140625 L1033.16294,130.769196 L1033.16294,130.769196 Z" id="路径备份" fill="#E0F64B" fill-rule="nonzero"></path>
                <path d="M914.453563,128 C914.453563,154.509668 935.943895,176 962.453563,176 C988.963231,176 1010.45356,154.509668 1010.45356,128 L1010.45356,100 L1016.45356,100 L1016.45356,128 C1016.45356,157.823376 992.276939,182 962.453563,182 C932.630186,182 908.453563,157.823376 908.453563,128 L908.453563,100 L914.453563,100 Z" id="矩形-3" fill="#637F80"></path>
                <path d="M567.453563,101 L567.453563,129 C567.453563,150.98782 554.312019,169.906269 535.454821,178.329455 L535.455436,171.671768 C550.897379,163.693657 561.453563,147.579593 561.453563,129 L561.453563,101 L567.453563,101 Z" id="矩形-3备份" fill="#637F80"></path>
                <path d="M603.453563,30 L611.453563,30 L611.453563,27 L603.453563,27 L603.453563,12 C603.453563,10.8954305 604.348993,10 605.453563,10 L674.195199,10 C687.910812,10 694.660812,12.8601966 704.445199,18.5805898 C714.229585,24.3009831 721.677076,31.833562 726.787671,41.1783265 C731.898266,50.523091 734.453563,60.6101966 734.453563,71.4396433 C734.453563,82.1817558 731.898266,92.2251943 726.787671,101.569959 C721.677076,110.914723 714.229585,118.469136 704.445199,124.233196 C694.660812,129.997257 687.910812,132.879287 674.195199,132.879287 L643.497243,132.879287 L643.497243,197 C643.497243,198.104569 642.601813,199 641.497243,199 L625.453563,199 L625.453563,196 L621.453563,196 L621.453563,199 L605.453563,199 C604.348993,199 603.453563,198.104569 603.453563,197 L603.453563,97 L644.453563,97 L644.453563,47 L603.453563,47 L603.453563,30 Z M695.453563,71.5661017 C695.453563,65.2723695 692.643973,59.9118644 691.024792,56.9152542 C689.405611,53.9186441 687.042483,51.5169492 683.935406,49.7101695 C680.82833,47.9033898 677.217995,47 673.104401,47 L644.453563,47 L644.453563,97 L673.104401,97 C677.217995,97 680.82833,96.0966102 683.935406,94.2898305 C687.042483,92.4830508 689.405611,90.1033898 691.024792,87.1508475 C692.643973,84.1983051 695.453563,77.8598339 695.453563,71.5661017 Z" id="形状" fill="#E0F64B" fill-rule="nonzero"></path>
                <path d="M608.453563,26 L670.953563,26 C696.634804,26 717.453563,46.8187591 717.453563,72.5 C717.453563,98.1812409 696.634804,119 670.953563,119 L608.453563,119 L608.453563,113 L671.453563,113 C694.097238,113 712.453563,94.6436747 712.453563,72 C712.453563,49.3563253 694.097238,31 671.453563,31 L608.453563,31 L608.453563,26 Z M608.453563,113 L641.453563,113 L641.453563,119 L608.453563,119 Z" id="矩形-2" fill="#637F80"></path>
                <rect id="矩形" fill="#4B8384" x="620.453563" y="113" width="6" height="83"></rect>
                <path d="M744.453563,30 L752.453563,30 L752.453563,27 L744.453563,27 L744.453563,12 C744.453563,10.8954305 745.348993,10 746.453563,10 L815.195199,10 C828.910812,10 835.660812,12.8601966 845.445199,18.5805898 C855.229585,24.3009831 862.677076,31.833562 867.787671,41.1783265 C872.898266,50.523091 875.453563,60.6101966 875.453563,71.4396433 C875.453563,82.1817558 872.898266,92.2251943 867.787671,101.569959 C862.677076,110.914723 855.229585,118.469136 845.445199,124.233196 C835.660812,129.997257 828.910812,132.879287 815.195199,132.879287 L784.497243,132.879287 L784.497243,197 C784.497243,198.104569 783.601813,199 782.497243,199 L766.453563,199 L766.453563,196 L762.453563,196 L762.453563,199 L746.453563,199 C745.348993,199 744.453563,198.104569 744.453563,197 L744.453563,97 L785.453563,97 L785.453563,47 L744.453563,47 L744.453563,30 Z M836.453563,71.5661017 C836.453563,65.2723695 833.643973,59.9118644 832.024792,56.9152542 C830.405611,53.9186441 828.042483,51.5169492 824.935406,49.7101695 C821.82833,47.9033898 818.217995,47 814.104401,47 L785.453563,47 L785.453563,97 L814.104401,97 C818.217995,97 821.82833,96.0966102 824.935406,94.2898305 C828.042483,92.4830508 830.405611,90.1033898 832.024792,87.1508475 C833.643973,84.1983051 836.453563,77.8598339 836.453563,71.5661017 Z" id="形状备份" fill="#E0F64B" fill-rule="nonzero"></path>
                <path d="M749.453563,26 L811.953563,26 C837.634804,26 858.453563,46.8187591 858.453563,72.5 C858.453563,98.1812409 837.634804,119 811.953563,119 L749.453563,119 L749.453563,113 L812.453563,113 C835.097238,113 853.453563,94.6436747 853.453563,72 C853.453563,49.3563253 835.097238,31 812.453563,31 L749.453563,31 L749.453563,26 Z M749.453563,113 L782.453563,113 L782.453563,119 L749.453563,119 Z" id="矩形-2备份" fill="#637F80"></path>
                <rect id="矩形备份-3" fill="#4B8384" x="761.453563" y="113" width="6" height="83"></rect>
                <polygon id="路径-3" fill="#01EDD9" fill-rule="nonzero" points="134.820914 0.961313099 227.30857 0.961313099 180.44125 78.7472449"></polygon>
                <path d="M89.4535629,0 C119.829224,-7.10542736e-15 144.453563,24.6243388 144.453563,55 L144.453563,152 C144.453563,182.244478 120.041454,206.787203 89.846788,206.998624 C90.0454762,206.81605 90.1611168,206.594345 90.1949387,206.332768 C90.2858735,205.629486 89.8724944,205.154521 88.9548014,204.907873 L88.9548014,57.5454466 C88.1022002,56.1859134 86.8669381,55.5061468 85.249015,55.5061468 L57.9793583,55.5061468 C55.9403653,55.5061468 53.8142662,55.6575284 51.5952064,55.2613438 C18.9957876,49.4411375 1.79738542,31.7365361 3.35498333e-14,2.14753985 C2.15881284,0.786701828 4.71431584,-1.88795477e-15 7.45356291,0 L89.4535629,0 Z" id="矩形-4" fill="#E0F64B" fill-rule="nonzero"></path>
            </g>
        </g>
    </g>
</svg>