<?xml version="1.0" standalone="no"?><!DOCTYPE svg PUBLIC "-//W3C//DTD SVG 1.1//EN" "http://www.w3.org/Graphics/SVG/1.1/DTD/svg11.dtd"><svg t="1750060017447" class="icon" viewBox="0 0 1024 1024" version="1.1" xmlns="http://www.w3.org/2000/svg" p-id="18116" xmlns:xlink="http://www.w3.org/1999/xlink" width="200" height="200"><path d="M473.173333 227.669333l-133.12-77.482666V103.082667L516.352 0l171.52 103.082667V150.186667l-129.024 76.629333-3.925333 47.104-38.570667-25.6-43.178667 25.6v-46.250667zM744.021333 535.210667v-153.429334l-132.949333-76.629333v-47.104l171.349333-98.304 176.469334 98.304v201.216l-176.469334 98.304-38.4-22.357333zM340.053333 920.064V723.626667l38.4-25.6 133.12 76.8 137.045334-76.8 38.570666 21.674666v201.216L510.72 1024l-170.666667-103.936zM744.021333 843.434667v-154.112l-43.349333-25.6 43.349333-21.504v-47.104l38.4 25.6 133.12-76.8 43.349334 21.674666v201.216l-176.469334 98.133334-38.4-21.504z" fill="#303030" p-id="18117"></path><path d="M340.053333 612.693333V411.477333l176.469334-98.474666 171.52 98.474666V612.693333l-176.469334 98.304-171.52-98.304zM65.109333 766.122667L69.034667 564.906667l38.570666-21.674667 133.12 76.8 43.178667-25.6v47.104l43.349333 25.6-43.349333 21.504v154.112l-43.178667 21.504L65.109333 766.122667z" fill="#303030" p-id="18118"></path><path d="M65.109333 458.581333l3.925334-201.216 176.469333-98.304 171.52 98.304v47.104l-133.12 76.629334v149.333333l-43.178667 25.6L65.109333 458.581333z" fill="#303030" p-id="18119"></path></svg>