<?xml version="1.0" standalone="no"?><!DOCTYPE svg PUBLIC "-//W3C//DTD SVG 1.1//EN" "http://www.w3.org/Graphics/SVG/1.1/DTD/svg11.dtd"><svg t="1750258532692" class="icon" viewBox="0 0 1024 1024" version="1.1" xmlns="http://www.w3.org/2000/svg" p-id="1760" xmlns:xlink="http://www.w3.org/1999/xlink" width="200" height="200"><path d="M512 146.286a365.714 365.714 0 1 1 0 731.428 365.714 365.714 0 0 1 0-731.428z m0 62.025a303.69 303.69 0 1 0 0.073 607.451A303.69 303.69 0 0 0 512 208.311z m19.675 114.322c3.658 0 6.583 2.926 6.583 6.51v202.02l116.297 84.115c3 2.12 3.658 6.217 1.463 9.216l-23.26 31.817a6.583 6.583 0 0 1-9.142 1.463l-135.022-98.597a6.437 6.437 0 0 1-2.706-5.266V329.143a6.555 6.555 0 0 1 6.583-6.583z" p-id="1761" fill="#666666"></path></svg>