<?xml version="1.0" standalone="no"?><!DOCTYPE svg PUBLIC "-//W3C//DTD SVG 1.1//EN" "http://www.w3.org/Graphics/SVG/1.1/DTD/svg11.dtd"><svg t="1750055303109" class="icon" viewBox="0 0 1037 1024" version="1.1" xmlns="http://www.w3.org/2000/svg" p-id="14139" xmlns:xlink="http://www.w3.org/1999/xlink" width="202.5390625" height="200"><path d="M998.230808 568.223691h-22.905948a456.557194 456.557194 0 0 0-257.431622-373.523132 199.385867 199.385867 0 0 0-398.511438 0 457.598373 457.598373 0 0 0-257.431622 373.523132H39.04423a39.04423 39.04423 0 0 0 0 78.088459H104.117946a416.471784 416.471784 0 0 0 829.299441 0h65.073716a39.04423 39.04423 0 0 0 0-78.088459z m-101.514997 0h-338.383325v-172.835791A200.166751 200.166751 0 0 0 702.796136 274.871378a378.729029 378.729029 0 0 1 193.919675 293.352313zM518.507372 104.117946a95.528216 95.528216 0 1 1-95.267921 95.528216A95.528216 95.528216 0 0 1 518.507372 104.117946z m-184.54906 171.013727a200.687341 200.687341 0 0 0 145.50483 120.256227v172.835791H140.559227a378.208439 378.208439 0 0 1 193.399085-293.092018z m184.54906 670.779867A338.383325 338.383325 0 0 1 182.206406 646.31215h672.601932a338.383325 338.383325 0 0 1-336.300966 299.59939z" fill="#ffffff" p-id="14140"></path></svg>